<svg width="595" height="412" viewBox="0 0 595 412" fill="none" xmlns="http://www.w3.org/2000/svg">
<path d="M443.909 6C513.715 6.00001 565.272 48.3157 565.272 109.123C565.272 131.859 558.377 151.23 545.217 166.548C535.309 178.08 522.022 187.117 505.88 193.614C556.968 209.019 590 244.442 590 291.92C590 327.019 575.882 355.779 550.178 375.633C524.619 395.374 488.029 406 443.424 406H276V386.622L278.546 385.188C285.878 381.057 290.713 377.426 293.856 372.658C296.95 367.967 298.788 361.574 298.788 351.191V60.8086C298.788 50.4294 296.951 43.5941 293.779 38.4746C290.594 33.3331 285.72 29.3601 278.546 25.3184L276 23.8838V6H443.909ZM439.002 205.752L438.789 205.771H401.368L400.449 386.038H435.667C452.703 386.038 465.396 379.123 474.076 365.72C482.962 351.998 487.879 331.075 487.879 302.877C487.879 271.557 483.901 247.453 476.61 231C469.427 214.787 459.369 206.608 447.033 205.272H444.604L439.002 205.752ZM453.047 47.5918C446.581 31.9736 438.227 25.5942 429.573 25.957L429.469 25.9619H401.379L400.924 185.809H436.151C443.149 185.809 449.824 180.958 454.996 168.639C460.145 156.374 463.151 137.952 463.151 114.104C463.151 85.7996 459.424 62.9966 453.047 47.5918Z" fill="black" stroke="white" stroke-width="10"/>
<path d="M154.008 5V22.8008L151.424 24.2275C138.284 31.4772 131.003 45.237 131.003 65.6484C131.003 226.846 131.219 343.865 128.679 384.196H172.245C191.044 384.196 205.13 382.812 216.528 379.17C227.761 375.581 236.574 369.737 244.722 360.42C252.983 350.973 260.611 337.898 269.268 319.731C277.916 301.582 287.42 278.73 299.56 249.861L300.847 246.799H317.787L316.947 252.524L294.921 402.726L294.294 407H5V391.169L7.58496 389.743C14.6467 385.847 19.6086 381.483 22.877 375.898C26.1553 370.296 28.0049 362.993 28.0049 352.754V65.6484C28.0049 45.2372 20.7241 31.4772 7.58496 24.2275L5 22.8008V5H154.008Z" fill="black" stroke="white" stroke-width="10"/>
</svg>
